<?xml version="1.0" standalone="no"?>
<!DOCTYPE svg PUBLIC "-//W3C//DTD SVG 1.1//EN" "http://www.w3.org/Graphics/SVG/1.1/DTD/svg11.dtd">
<svg xmlns="http://www.w3.org/2000/svg" width="1140" height="1140" viewBox="195 825 1140 1140">

<path fill="#F9B617" transform="matrix(3.32853 0 0 3.32813 0 0.000976562)" d="M298.512 469.951C286.186 484.5 268.654 493.642 249.671 495.42C229.065 497.162 209.651 491.709 193.746 478.209C178.027 464.877 168.267 445.828 166.626 425.278C165.028 404.902 171.606 384.728 184.908 369.213C199.951 351.56 218.238 344.63 240.773 342.857C240.772 351.155 240.514 361.285 241.143 369.423C227.792 370.152 215.999 374.619 206.785 384.553C197.486 394.427 192.589 407.652 193.212 421.203C193.721 434.67 199.209 447.396 209.252 456.482C224.814 470.297 247.388 472.808 265.605 462.751C269.655 460.485 277.456 453.74 280.717 453.56C285.32 455.741 294.45 465.787 298.512 469.951Z"/>
<path fill="#E92B28" transform="matrix(3.32853 0 0 3.32813 0 0.000976562)" d="M126.034 417.669C126.409 389.181 137.293 361.835 156.596 340.884C179.689 315.393 206.928 304.261 240.705 302.54C240.784 310.495 241.204 321.864 240.843 329.568C214.614 330.463 194.713 339.076 176.506 358.221C161.577 373.919 152.42 395.921 152.287 417.679C143.537 417.523 134.785 417.519 126.034 417.669Z"/>
<path fill="#F4861F" transform="matrix(3.32853 0 0 3.32813 0 0.000976562)" d="M240.705 302.54C276.925 303.276 307.689 316.332 331.209 344.52C324.875 350.501 318.45 356.384 311.935 362.168C290.882 340.686 273.531 329.851 242.181 329.572C241.735 329.567 241.289 329.566 240.843 329.568C241.204 321.864 240.784 310.495 240.705 302.54Z"/>
<path fill="#5BB44A" transform="matrix(3.32853 0 0 3.32813 0 0.000976562)" d="M240.972 509.019C274.579 508.053 288.801 498.6 312.197 476.368C318.013 481.222 326.469 487.897 331.888 492.887C311.765 517.198 282.741 532.429 251.306 535.175C245.866 535.645 238.633 535.854 233.228 535.302L241.273 535.218C241.253 526.484 241.152 517.751 240.972 509.019Z"/>
<path fill="#AFCC2F" transform="matrix(3.32853 0 0 3.32813 0 0.000976562)" d="M173.594 477.226C191.191 496.777 211.327 507.646 238.028 508.962C239.009 509.01 239.99 509.029 240.972 509.019C241.152 517.751 241.253 526.484 241.273 535.218L233.228 535.302C205.055 534.519 172.483 516.563 154.33 495.455C160.491 490.681 168.124 482.811 173.594 477.226Z"/>
<path fill="#0F172A" transform="matrix(3.32853 0 0 3.32813 0 0.000976562)" d="M289.674 372.176C292.946 374.608 298.955 381.199 301.76 384.241C281.926 405.368 259.002 426.809 238.462 448.11C232.037 442.291 224.586 434.522 218.329 428.297C214.148 424.202 210.045 420.028 206.022 415.777C208.801 412.499 214.436 407.198 217.656 403.99C222.668 407.549 231.775 418.627 238.358 423.942C255.489 407.049 272.407 388.792 289.674 372.176Z"/>
<path fill="#F4861F" transform="matrix(3.32853 0 0 3.32813 0 0.000976562)" d="M126.034 417.669C134.785 417.519 143.537 417.523 152.287 417.679C152.241 438.978 159.399 461.136 173.594 477.226C168.124 482.811 160.491 490.681 154.33 495.455C134.693 473.129 126.302 447.072 126.034 417.669Z"/>
<path fill="#F4861F" transform="matrix(3.32853 0 0 3.32813 0 0.000976562)" d="M240.773 342.857C256.662 341.771 275.541 348.391 287.769 358.483C282.477 364.219 275.877 373.108 270.954 377.958C256.993 372.976 258.804 370.74 241.143 369.423C240.514 361.285 240.772 351.155 240.773 342.857Z"/>
</svg>