<svg xmlns="http://www.w3.org/2000/svg" xmlns:xlink="http://www.w3.org/1999/xlink" width="4406" zoomAndPan="magnify" viewBox="0 0 3304.5 1416.749936" height="1889" preserveAspectRatio="xMidYMid meet" version="1.0"><defs><g/><clipPath id="1e7c8a7bdb"><rect x="0" width="2172" y="0" height="996"/></clipPath></defs><path fill="#f9b617" d="M 708.152344 903.539062 C 660.808594 959.457031 593.464844 994.589844 520.546875 1001.425781 C 441.394531 1008.121094 366.824219 987.164062 305.730469 935.277344 C 245.347656 884.039062 207.859375 810.828125 201.554688 731.847656 C 195.417969 653.535156 220.683594 576 271.78125 516.371094 C 329.5625 448.527344 399.808594 421.890625 486.367188 415.078125 C 486.363281 446.96875 485.371094 485.902344 487.789062 517.179688 C 436.503906 519.980469 391.207031 537.148438 355.8125 575.328125 C 320.09375 613.277344 301.285156 664.105469 303.675781 716.1875 C 305.632812 767.945312 326.714844 816.851562 365.289062 851.773438 C 425.066406 904.867188 511.777344 914.519531 581.75 875.867188 C 597.308594 867.160156 627.273438 841.234375 639.800781 840.542969 C 657.480469 848.925781 692.550781 887.535156 708.152344 903.539062 Z M 708.152344 903.539062 " fill-opacity="1" fill-rule="nonzero"/><path fill="#e92b28" d="M 45.636719 702.601562 C 47.074219 593.113281 88.882812 488.015625 163.027344 407.496094 C 251.734375 309.523438 356.363281 266.742188 486.105469 260.125 C 486.410156 290.699219 488.023438 334.394531 486.636719 364.003906 C 385.886719 367.445312 309.441406 400.546875 239.507812 474.125 C 182.160156 534.457031 146.988281 619.019531 146.476562 702.640625 C 112.867188 702.042969 79.25 702.027344 45.636719 702.601562 Z M 45.636719 702.601562 " fill-opacity="1" fill-rule="nonzero"/><path fill="#f4861f" d="M 486.105469 260.125 C 625.234375 262.957031 743.402344 313.132812 833.75 421.46875 C 809.417969 444.457031 784.738281 467.066406 759.714844 489.296875 C 678.84375 406.734375 612.195312 365.089844 491.777344 364.019531 C 490.0625 364 488.351562 363.996094 486.636719 364.003906 C 488.023438 334.394531 486.410156 290.699219 486.105469 260.125 Z M 486.105469 260.125 " fill-opacity="1" fill-rule="nonzero"/><path fill="#5bb44a" d="M 487.132812 1053.691406 C 616.222656 1049.976562 670.851562 1013.644531 760.71875 928.203125 C 783.058594 946.855469 815.542969 972.511719 836.355469 991.691406 C 759.058594 1085.125 647.574219 1143.660156 526.828125 1154.214844 C 505.929688 1156.023438 478.148438 1156.824219 457.386719 1154.703125 L 488.289062 1154.378906 C 488.210938 1120.8125 487.824219 1087.25 487.132812 1053.691406 Z M 487.132812 1053.691406 " fill-opacity="1" fill-rule="nonzero"/><path fill="#afcc2f" d="M 228.320312 931.5 C 295.914062 1006.640625 373.261719 1048.414062 475.824219 1053.472656 C 479.59375 1053.65625 483.359375 1053.726562 487.132812 1053.691406 C 487.824219 1087.25 488.210938 1120.8125 488.289062 1154.378906 L 457.386719 1154.703125 C 349.167969 1151.695312 224.054688 1082.683594 154.324219 1001.558594 C 177.992188 983.210938 207.308594 952.964844 228.320312 931.5 Z M 228.320312 931.5 " fill-opacity="1" fill-rule="nonzero"/><path fill="#ffffff" d="M 674.203125 527.757812 C 686.773438 537.105469 709.855469 562.4375 720.628906 574.128906 C 644.445312 655.328125 556.386719 737.730469 477.492188 819.597656 C 452.8125 797.234375 424.191406 767.375 400.15625 743.449219 C 384.097656 727.710938 368.335938 711.667969 352.882812 695.332031 C 363.558594 682.734375 385.203125 662.359375 397.570312 650.03125 C 416.824219 663.710938 451.804688 706.285156 477.089844 726.710938 C 542.894531 661.789062 607.878906 591.621094 674.203125 527.757812 Z M 674.203125 527.757812 " fill-opacity="1" fill-rule="nonzero"/><path fill="#f4861f" d="M 45.636719 702.601562 C 79.25 702.027344 112.867188 702.042969 146.476562 702.640625 C 146.300781 784.5 173.796875 869.660156 228.320312 931.5 C 207.308594 952.964844 177.992188 983.210938 154.324219 1001.558594 C 78.894531 915.753906 46.664062 815.609375 45.636719 702.601562 Z M 45.636719 702.601562 " fill-opacity="1" fill-rule="nonzero"/><path fill="#f4861f" d="M 486.367188 415.078125 C 547.398438 410.902344 619.917969 436.347656 666.886719 475.132812 C 646.558594 497.179688 621.207031 531.339844 602.296875 549.980469 C 548.671875 530.835938 555.628906 522.242188 487.789062 517.179688 C 485.371094 485.902344 486.363281 446.96875 486.367188 415.078125 Z M 486.367188 415.078125 " fill-opacity="1" fill-rule="nonzero"/><g transform="matrix(1, 0, 0, 1, 861, 210)"><g clip-path="url(#1e7c8a7bdb)"><g fill="#ffffff" fill-opacity="1"><g transform="translate(0.153913, 776.76151)"><g><path d="M 163.875 0 L 3.640625 -524.40625 L 105.609375 -524.40625 L 236.71875 -93.234375 L 370 -524.40625 L 471.96875 -524.40625 L 311.734375 0 Z M 163.875 0 "/></g></g></g><g fill="#ffffff" fill-opacity="1"><g transform="translate(475.766373, 776.76151)"><g><path d="M 50.984375 0 L 50.984375 -524.40625 L 393.3125 -524.40625 L 393.3125 -431.90625 L 150.03125 -431.90625 L 150.03125 -319.75 L 349.609375 -319.75 L 349.609375 -227.25 L 150.03125 -227.25 L 150.03125 -92.5 L 393.3125 -92.5 L 393.3125 0 Z M 50.984375 0 "/></g></g></g><g fill="#ffffff" fill-opacity="1"><g transform="translate(905.492691, 776.76151)"><g><path d="M 160.234375 10.921875 C 132.066406 10.921875 108.210938 5.519531 88.671875 -5.28125 C 69.128906 -16.082031 54.320312 -30.523438 44.25 -48.609375 C 34.175781 -66.703125 29.140625 -86.671875 29.140625 -108.515625 C 29.140625 -126.734375 31.929688 -143.367188 37.515625 -158.421875 C 43.097656 -173.472656 52.140625 -186.765625 64.640625 -198.296875 C 77.140625 -209.828125 93.953125 -219.476562 115.078125 -227.25 C 129.640625 -232.582031 146.992188 -237.3125 167.140625 -241.4375 C 187.296875 -245.570312 210.117188 -249.519531 235.609375 -253.28125 C 261.109375 -257.039062 289.15625 -261.226562 319.75 -265.84375 L 284.046875 -246.1875 C 284.046875 -269.488281 278.460938 -286.601562 267.296875 -297.53125 C 256.128906 -308.457031 237.4375 -313.921875 211.21875 -313.921875 C 196.65625 -313.921875 181.484375 -310.398438 165.703125 -303.359375 C 149.921875 -296.316406 138.875 -283.8125 132.5625 -265.84375 L 42.96875 -294.25 C 52.925781 -326.78125 71.617188 -353.242188 99.046875 -373.640625 C 126.484375 -394.035156 163.875 -404.234375 211.21875 -404.234375 C 245.9375 -404.234375 276.769531 -398.890625 303.71875 -388.203125 C 330.664062 -377.523438 351.0625 -359.078125 364.90625 -332.859375 C 372.664062 -318.285156 377.273438 -303.710938 378.734375 -289.140625 C 380.191406 -274.578125 380.921875 -258.316406 380.921875 -240.359375 L 380.921875 0 L 294.25 0 L 294.25 -80.84375 L 306.625 -64.09375 C 287.445312 -37.632812 266.75 -18.515625 244.53125 -6.734375 C 222.320312 5.035156 194.222656 10.921875 160.234375 10.921875 Z M 181.359375 -67 C 199.566406 -67 214.921875 -70.21875 227.421875 -76.65625 C 239.929688 -83.09375 249.882812 -90.4375 257.28125 -98.6875 C 264.6875 -106.945312 269.726562 -113.867188 272.40625 -119.453125 C 277.5 -130.128906 280.46875 -142.566406 281.3125 -156.765625 C 282.164062 -170.972656 282.59375 -182.8125 282.59375 -192.28125 L 311.734375 -185 C 282.359375 -180.144531 258.566406 -176.078125 240.359375 -172.796875 C 222.148438 -169.523438 207.457031 -166.550781 196.28125 -163.875 C 185.113281 -161.207031 175.285156 -158.296875 166.796875 -155.140625 C 157.078125 -151.253906 149.242188 -147.066406 143.296875 -142.578125 C 137.347656 -138.085938 132.976562 -133.171875 130.1875 -127.828125 C 127.394531 -122.484375 126 -116.535156 126 -109.984375 C 126 -100.992188 128.242188 -93.28125 132.734375 -86.84375 C 137.234375 -80.414062 143.609375 -75.5 151.859375 -72.09375 C 160.109375 -68.695312 169.941406 -67 181.359375 -67 Z M 181.359375 -67 "/></g></g></g><g fill="#ffffff" fill-opacity="1"><g transform="translate(1330.120649, 776.76151)"><g><path d="M 204.671875 10.921875 C 155.140625 10.921875 115.140625 -0.304688 84.671875 -22.765625 C 54.203125 -45.222656 35.691406 -76.960938 29.140625 -117.984375 L 130.375 -133.28125 C 134.5 -114.832031 143.660156 -100.390625 157.859375 -89.953125 C 172.066406 -79.515625 190.097656 -74.296875 211.953125 -74.296875 C 229.910156 -74.296875 243.742188 -77.753906 253.453125 -84.671875 C 263.171875 -91.585938 268.03125 -101.238281 268.03125 -113.625 C 268.03125 -121.394531 266.085938 -127.644531 262.203125 -132.375 C 258.316406 -137.113281 249.632812 -141.785156 236.15625 -146.390625 C 222.6875 -151.003906 201.75 -157.078125 173.34375 -164.609375 C 141.300781 -172.859375 115.6875 -182.082031 96.5 -192.28125 C 77.320312 -202.476562 63.484375 -214.675781 54.984375 -228.875 C 46.492188 -243.082031 42.25 -260.257812 42.25 -280.40625 C 42.25 -305.65625 48.679688 -327.566406 61.546875 -346.140625 C 74.410156 -364.710938 92.554688 -379.035156 115.984375 -389.109375 C 139.410156 -399.191406 167.03125 -404.234375 198.84375 -404.234375 C 229.675781 -404.234375 256.988281 -399.5 280.78125 -390.03125 C 304.570312 -380.5625 323.8125 -367.085938 338.5 -349.609375 C 353.1875 -332.128906 362.226562 -311.492188 365.625 -287.703125 L 264.390625 -269.484375 C 262.691406 -284.054688 256.378906 -295.585938 245.453125 -304.078125 C 234.523438 -312.578125 219.710938 -317.554688 201.015625 -319.015625 C 182.804688 -320.222656 168.179688 -317.789062 157.140625 -311.71875 C 146.097656 -305.65625 140.578125 -296.921875 140.578125 -285.515625 C 140.578125 -278.710938 142.941406 -273.003906 147.671875 -268.390625 C 152.398438 -263.773438 162.226562 -259.039062 177.15625 -254.1875 C 192.09375 -249.332031 214.859375 -243.019531 245.453125 -235.25 C 275.316406 -227.488281 299.289062 -218.445312 317.375 -208.125 C 335.457031 -197.800781 348.625 -185.414062 356.875 -170.96875 C 365.132812 -156.53125 369.265625 -139.113281 369.265625 -118.71875 C 369.265625 -78.414062 354.695312 -46.734375 325.5625 -23.671875 C 296.4375 -0.609375 256.140625 10.921875 204.671875 10.921875 Z M 204.671875 10.921875 "/></g></g></g><g fill="#ffffff" fill-opacity="1"><g transform="translate(1728.528067, 776.76151)"><g><path d="M 233.796875 10.921875 C 193.492188 10.921875 157.984375 2.242188 127.265625 -15.109375 C 96.554688 -32.472656 72.523438 -56.390625 55.171875 -86.859375 C 37.816406 -117.328125 29.140625 -152.222656 29.140625 -191.546875 C 29.140625 -234.523438 37.632812 -271.914062 54.625 -303.71875 C 71.625 -335.519531 95.050781 -360.222656 124.90625 -377.828125 C 154.769531 -395.429688 189.125 -404.234375 227.96875 -404.234375 C 269.238281 -404.234375 304.316406 -394.519531 333.203125 -375.09375 C 362.097656 -355.675781 383.460938 -328.363281 397.296875 -293.15625 C 411.140625 -257.957031 416 -216.5625 411.875 -168.96875 L 313.921875 -168.96875 L 313.921875 -205.390625 C 313.921875 -245.453125 307.546875 -274.28125 294.796875 -291.875 C 282.046875 -309.476562 261.226562 -318.28125 232.34375 -318.28125 C 198.59375 -318.28125 173.765625 -308.019531 157.859375 -287.5 C 141.960938 -266.988281 134.015625 -236.707031 134.015625 -196.65625 C 134.015625 -159.988281 141.960938 -131.640625 157.859375 -111.609375 C 173.765625 -91.585938 197.132812 -81.578125 227.96875 -81.578125 C 247.394531 -81.578125 264.023438 -85.820312 277.859375 -94.3125 C 291.703125 -102.8125 302.265625 -115.078125 309.546875 -131.109375 L 408.59375 -102.703125 C 393.789062 -66.765625 370.425781 -38.84375 338.5 -18.9375 C 306.570312 0.96875 271.671875 10.921875 233.796875 10.921875 Z M 103.421875 -168.96875 L 103.421875 -242.53125 L 364.171875 -242.53125 L 364.171875 -168.96875 Z M 103.421875 -168.96875 "/></g></g></g></g></g></svg>